<?xml version="1.0" encoding="UTF-8" standalone="no"?>
<svg
   version="1.1"
   id="Layer_1"
   x="0px"
   y="0px"
   width="232.4856"
   height="232.4856"
   viewBox="0 0 232.4856 232.4856"
   enable-background="new 0 0 283.465 283.465"
   xml:space="preserve"
   inkscape:version="1.2 (dc2aedaf03, 2022-05-15)"
   sodipodi:docname="skippy_logo_invert.svg"
   xmlns:inkscape="http://www.inkscape.org/namespaces/inkscape"
   xmlns:sodipodi="http://sodipodi.sourceforge.net/DTD/sodipodi-0.dtd"
   xmlns="http://www.w3.org/2000/svg"
   xmlns:svg="http://www.w3.org/2000/svg"
   xmlns:rdf="http://www.w3.org/1999/02/22-rdf-syntax-ns#"
   xmlns:cc="http://creativecommons.org/ns#"
   xmlns:dc="http://purl.org/dc/elements/1.1/"><metadata
     id="metadata4470"><rdf:RDF><cc:Work
         rdf:about=""><dc:format>image/svg+xml</dc:format><dc:type
           rdf:resource="http://purl.org/dc/dcmitype/StillImage" /><dc:title /></cc:Work></rdf:RDF></metadata><defs
     id="defs4468"><rect
       x="-163.78491"
       y="22.594086"
       width="169.63184"
       height="173.07858"
       id="rect1004" /></defs><sodipodi:namedview
     pagecolor="#ffffff"
     bordercolor="#666666"
     borderopacity="1"
     objecttolerance="10"
     gridtolerance="10"
     guidetolerance="10"
     inkscape:pageopacity="0"
     inkscape:pageshadow="2"
     inkscape:window-width="1916"
     inkscape:window-height="1041"
     id="namedview4466"
     showgrid="false"
     inkscape:zoom="2.3492369"
     inkscape:cx="132.80908"
     inkscape:cy="127.27537"
     inkscape:window-x="0"
     inkscape:window-y="18"
     inkscape:window-maximized="1"
     inkscape:current-layer="Layer_1"
     inkscape:document-rotation="0"
     showguides="true"
     fit-margin-top="0"
     fit-margin-left="0"
     fit-margin-right="0"
     fit-margin-bottom="0"
     inkscape:snap-page="false"
     inkscape:showpageshadow="0"
     inkscape:pagecheckerboard="1"
     inkscape:deskcolor="#d1d1d1" /><g
     id="g1198"
     transform="translate(-29.200065,-28.279967)"><path
       id="path1030"
       style="color:#000000;font-style:normal;font-variant:normal;font-weight:normal;font-stretch:normal;font-size:medium;line-height:normal;font-family:sans-serif;text-indent:0;text-align:start;text-decoration:none;text-decoration-line:none;text-decoration-style:solid;text-decoration-color:#000000;letter-spacing:normal;word-spacing:normal;text-transform:none;writing-mode:lr-tb;direction:ltr;baseline-shift:baseline;text-anchor:start;white-space:normal;clip-rule:nonzero;display:inline;overflow:visible;visibility:visible;opacity:1;isolation:auto;mix-blend-mode:normal;color-interpolation:sRGB;color-interpolation-filters:linearRGB;solid-color:#000000;solid-opacity:1;fill:#0c0000;fill-opacity:1;fill-rule:nonzero;stroke:none;stroke-width:7.72869;stroke-linecap:butt;stroke-linejoin:miter;stroke-miterlimit:4;stroke-dasharray:none;stroke-dashoffset:0;stroke-opacity:1;color-rendering:auto;image-rendering:auto;shape-rendering:auto;text-rendering:auto;enable-background:accumulate"
       d="M 116.24414,0 C 52.089727,0 0,52.087767 0,116.24219 c 0,64.15443 52.089727,116.24415 116.24414,116.24414 64.15443,0 116.24219,-52.08971 116.24219,-116.24414 C 232.48633,52.087767 180.39857,0 116.24414,0 Z m 3.49219,12.626953 3.87305,0.263672 c 1.14319,0.07767 2.01863,0.495566 2.625,1.251953 0.61191,0.751543 0.88042,1.669822 0.80664,2.75586 -0.0745,1.09643 -0.46129,1.947677 -1.16016,2.552734 -0.69368,0.605411 -1.60969,0.870953 -2.74805,0.798828 l -1.59765,-0.107422 -0.27149,3.990234 -2.29883,-0.15625 z m -4.43164,0.0059 2.29687,0.0039 -0.0195,11.375 -2.29687,-0.0039 z m -5.62891,0.04297 c 1.23703,-0.07949 2.20137,0.208217 2.89063,0.863281 0.68892,0.649868 1.11526,1.616727 1.28125,2.900391 l -2.29102,0.146485 c -0.0781,-0.809159 -0.2425,-1.353198 -0.49023,-1.634766 -0.24807,-0.286766 -0.66986,-0.411456 -1.26758,-0.373047 -0.58733,0.03774 -1.00287,0.276468 -1.2461,0.714844 -0.24322,0.438374 -0.33637,1.181836 -0.27929,2.232422 l 0.13281,2.066406 c 0.0688,1.070709 0.23509,1.824556 0.49805,2.261719 0.26294,0.437162 0.71944,0.635498 1.36914,0.59375 0.56654,-0.03641 0.96514,-0.198069 1.19726,-0.484375 0.23212,-0.286308 0.33538,-0.84117 0.3086,-1.664063 l 2.29101,-0.146484 c 0.0309,1.292348 -0.26972,2.293901 -0.90234,3.007812 -0.6326,0.713911 -1.55719,1.111299 -2.77344,1.189453 -1.24743,0.08016 -2.24261,-0.265504 -2.98633,-1.037109 -0.74371,-0.771605 -1.17265,-1.927352 -1.28711,-3.464844 l -0.13086,-2.033203 c -0.10186,-1.585272 0.17731,-2.817938 0.83594,-3.695312 0.6635,-0.882907 1.61258,-1.36387 2.84961,-1.44336 z m -8.54297,0.955078 c 0.7436,0.0091 1.39312,0.220763 1.94727,0.632813 0.74401,0.5486 1.19415,1.329855 1.35156,2.34375 l -2.26953,0.351562 c -0.0727,-0.468347 -0.23528,-0.837683 -0.48828,-1.109375 -0.24787,-0.27249 -0.60516,-0.372695 -1.06836,-0.300781 -0.42717,0.06632 -0.723913,0.241241 -0.890626,0.525391 -0.161567,0.28335 -0.214137,0.604577 -0.158203,0.964843 0.05673,0.365415 0.255646,0.64776 0.597659,0.847657 0.34715,0.199098 0.79133,0.370672 1.33008,0.513672 1.10824,0.212702 1.96651,0.561445 2.57421,1.046875 0.60772,0.48543 0.98313,1.192739 1.12696,2.11914 0.15342,0.988162 -0.0389,1.805747 -0.57617,2.453125 -0.53806,0.642232 -1.34161,1.046689 -2.41211,1.212891 -0.64334,0.09988 -1.28412,0.06432 -1.92188,-0.105469 -0.632618,-0.17059 -1.182884,-0.49991 -1.648437,-0.986328 -0.465553,-0.486418 -0.763844,-1.155418 -0.896484,-2.009766 l 2.277341,-0.355468 c 0.10548,0.679361 0.31423,1.13863 0.625,1.375 0.31593,0.23557 0.74014,0.311616 1.27539,0.228515 0.43747,-0.06792 0.72967,-0.235286 0.87305,-0.5 0.14257,-0.26986 0.18484,-0.585046 0.12891,-0.945312 -0.0599,-0.386001 -0.20482,-0.686821 -0.4336,-0.904297 -0.22443,-0.223421 -0.75935,-0.434378 -1.60742,-0.634766 -0.84807,-0.200388 -1.610629,-0.505571 -2.285156,-0.912109 -0.71534,-0.431825 -1.146655,-1.130082 -1.296875,-2.097656 -0.147026,-0.946988 0.0654,-1.759236 0.640625,-2.433594 0.574427,-0.679505 1.384917,-1.099512 2.429686,-1.261719 0.26892,-0.04175 0.52753,-0.06162 0.77539,-0.05859 z m 20.77344,1.0625 -0.24023,3.539063 1.57421,0.107422 c 0.47807,0.03248 0.83413,-0.101134 1.06836,-0.398438 0.23979,-0.302149 0.37502,-0.69709 0.40821,-1.185547 0.0332,-0.488457 -0.0454,-0.92744 -0.23828,-1.316406 -0.18728,-0.393809 -0.51998,-0.606189 -0.99805,-0.638672 z m 18.71875,0.777344 3.74414,1.025391 c 1.10515,0.302587 1.88165,0.886535 2.32617,1.748047 0.45093,0.857864 0.5316,1.811427 0.24414,2.861328 -0.2902,1.059947 -0.83769,1.816853 -1.64257,2.271484 -0.79986,0.456007 -1.75006,0.536423 -2.85157,0.240235 l -1.54492,-0.423829 -1.05664,3.857422 -2.22266,-0.607422 z m 1.7168,2.455078 -0.93555,3.421875 1.52148,0.416016 c 0.46216,0.126537 0.83847,0.06728 1.12696,-0.177734 0.29488,-0.248664 0.50548,-0.607875 0.63476,-1.080079 0.12929,-0.472204 0.1393,-0.918436 0.0274,-1.33789 -0.10556,-0.423104 -0.38941,-0.697682 -0.85157,-0.824219 z m -9.31055,0.837891 c 0.3696,0.06341 0.64239,0.228106 0.81836,0.496094 0.17597,0.267987 0.2339,0.571355 0.17578,0.910156 -0.0581,0.338801 -0.21353,0.606768 -0.46875,0.800781 -0.25523,0.194013 -0.5679,0.258719 -0.9375,0.195313 -0.36447,-0.06253 -0.63458,-0.228107 -0.81055,-0.496094 -0.17597,-0.267987 -0.23585,-0.571356 -0.17773,-0.910156 0.0581,-0.338801 0.21548,-0.604816 0.4707,-0.798828 0.25524,-0.194014 0.56522,-0.259792 0.92969,-0.197266 z m -48.207031,1.046875 -0.566407,5.013672 3.875,3.466797 -2.451171,0.894531 -2.150391,-2.384766 -0.05078,3.1875 -2.283203,0.832031 0.0078,0.01953 -5.236328,2.359375 -3.736328,-8.298828 5.242187,-2.361329 0.753907,1.673829 -3.226563,1.453125 0.673828,1.496093 2.707031,-1.21875 0.753907,1.673829 -2.707031,1.21875 0.804687,1.787109 3.220703,-1.449219 0.652344,1.451172 0.574219,-4.861328 -3.669922,-3.46875 2.378906,-0.867188 2.013672,2.375 0.0332,-3.123046 z m 6.957031,0.675781 c 0.158398,0.01941 0.30609,0.07227 0.441406,0.158203 0.270634,0.171874 0.448763,0.423144 0.535156,0.75586 0.08639,0.332716 0.05318,0.640045 -0.09961,0.921875 -0.152827,0.28183 -0.410477,0.470204 -0.773437,0.564453 -0.35792,0.09294 -0.672726,0.05273 -0.94336,-0.119141 -0.270633,-0.171874 -0.448756,-0.423143 -0.535156,-0.755859 -0.08639,-0.332717 -0.05318,-0.640045 0.09961,-0.921875 0.15282,-0.28183 0.407699,-0.469561 0.765625,-0.5625 0.18148,-0.04712 0.351368,-0.06042 0.509766,-0.04102 z m 58.31836,0.212891 1.94531,0.710937 -0.27734,9.591797 -2.08985,-0.765625 0.11915,-1.802734 -2.50977,-0.919922 -1.06445,1.457031 -2.08399,-0.763672 z m 6.94922,0.214843 3.51367,1.654297 c 1.03661,0.488243 1.69863,1.193988 1.98828,2.119141 0.29659,0.922661 0.21383,1.876552 -0.25,2.861328 -0.46827,0.9942 -1.13866,1.645727 -2.00976,1.955078 -0.8664,0.311571 -1.81745,0.227406 -2.85157,-0.253906 l -1.44726,-0.681641 -1.70508,3.617188 -2.08594,-0.980469 z m 1.26953,2.712891 -1.51172,3.208985 1.42774,0.671874 c 0.43348,0.204175 0.81427,0.211252 1.14062,0.01953 0.33327,-0.194213 0.60389,-0.512165 0.8125,-0.955078 0.20861,-0.442914 0.29397,-0.881991 0.25586,-1.314454 -0.0312,-0.434954 -0.2638,-0.75481 -0.69727,-0.958984 z m -8.21289,0.03516 -1.80078,2.460938 1.59961,0.585937 z m 15.39258,1.402344 2.00781,1.115235 -5.52539,9.943359 -2.00781,-1.115235 z m -97.244144,1.904297 3.425782,6.416016 2.949218,-1.574219 0.861328,1.613281 -4.902343,2.615234 -4.283203,-8.03125 z m 101.011714,0.207031 1.94922,1.230469 -5.05859,8.003906 3.40234,2.150391 -1.01953,1.611328 -5.34961,-3.380859 z M 62.789062,28.140625 c 0.236081,0.0077 0.470717,0.04177 0.705079,0.103516 0.939022,0.239793 1.702031,0.819639 2.289062,1.736328 0.592647,0.925461 0.789441,1.838072 0.587891,2.740234 C 66.17393,33.620057 65.596413,34.380496 64.638672,35 l -1.34961,0.863281 2.158204,3.369141 -1.941407,1.242187 -6.134765,-9.580078 3.269531,-2.09375 c 0.723701,-0.463445 1.440199,-0.683225 2.148437,-0.660156 z m -0.517578,2.058594 c -0.197096,0.01335 -0.395897,0.08564 -0.597656,0.214843 l -1.330078,0.84961 1.914062,2.988281 1.328126,-0.851562 c 0.403518,-0.258406 0.611743,-0.576755 0.623046,-0.955079 0.01288,-0.385516 -0.11293,-0.784974 -0.376953,-1.197265 -0.264023,-0.412291 -0.590117,-0.716233 -0.976562,-0.914063 -0.192434,-0.102512 -0.386888,-0.14811 -0.583985,-0.134765 z m 114.283206,2.4375 c 0.80558,0.0186 1.57223,0.303449 2.30078,0.855469 0.97555,0.73917 1.50994,1.670481 1.60547,2.794921 0.0987,1.12029 -0.34709,2.334924 -1.33789,3.642579 l -1.14063,1.505859 c -0.96878,1.278596 -1.9967,2.014567 -3.08203,2.205078 -1.08532,0.190511 -2.11624,-0.08505 -3.0918,-0.824219 -0.9714,-0.736024 -1.51621,-1.655134 -1.63476,-2.757812 -0.11855,-1.102678 0.3066,-2.29367 1.27539,-3.572266 l 1.14258,-1.505859 c 0.9908,-1.307655 2.03933,-2.065316 3.14453,-2.273438 0.27708,-0.05307 0.54983,-0.07651 0.81836,-0.07031 z m 0.043,2.046875 c -0.12748,0.01246 -0.25746,0.04192 -0.38868,0.08789 -0.51756,0.18288 -1.09756,0.693638 -1.74023,1.533204 l -1.1875,1.568359 c -0.62279,0.821955 -0.95055,1.509655 -0.98242,2.060547 -0.0246,0.549886 0.19689,1.001991 0.66601,1.357422 0.46494,0.352285 0.95357,0.442155 1.46485,0.267578 0.51128,-0.174577 1.07314,-0.664593 1.6875,-1.466797 l 1.18554,-1.5625 c 0.65425,-0.863467 1.00091,-1.573618 1.03907,-2.132813 0.0381,-0.559194 -0.17742,-1.017617 -0.64649,-1.373046 -0.34871,-0.264216 -0.71524,-0.377227 -1.09765,-0.339844 z M 56.304688,35.189453 c 0.247357,1.22e-4 0.500352,0.02746 0.759765,0.08203 1.037652,0.218298 1.981601,0.878241 2.832031,1.978516 l 0.210938,0.271484 c 0.850431,1.100275 1.249479,2.18106 1.199219,3.240235 -0.04933,1.051868 -0.493327,1.901014 -1.333985,2.550781 -0.8489,0.656138 -1.789752,0.87824 -2.824218,0.664062 -1.037653,-0.218298 -1.983554,-0.87824 -2.833985,-1.978515 l -0.208984,-0.271485 c -0.850432,-1.100273 -1.253172,-2.178385 -1.207031,-3.234374 0.05026,-1.059175 0.498969,-1.915407 1.34375,-2.56836 0.633585,-0.489714 1.320424,-0.734739 2.0625,-0.734374 z m -0.359376,1.947266 c -0.210978,0.0166 -0.406679,0.09582 -0.585937,0.234375 -0.370879,0.286662 -0.51167,0.686665 -0.421875,1.203125 0.08661,0.512339 0.3917,1.107379 0.914062,1.783203 l 0.21875,0.283203 c 0.515994,0.667582 1.018211,1.113824 1.50586,1.335937 0.484465,0.217993 0.912324,0.183147 1.283203,-0.103515 0.350275,-0.270737 0.483177,-0.670315 0.398437,-1.197266 -0.08792,-0.531072 -0.390258,-1.129292 -0.90625,-1.796875 l -0.21875,-0.285156 c -0.52236,-0.675825 -1.025597,-1.1157 -1.507812,-1.322266 -0.2427,-0.105343 -0.468708,-0.15137 -0.679688,-0.134765 z m -7.240234,1.578125 c 0.923438,0.04221 1.733084,0.442138 2.427734,1.197265 l -1.691406,1.554688 c -0.320878,-0.348817 -0.662069,-0.565281 -1.023437,-0.650391 -0.357536,-0.08864 -0.707751,0.02444 -1.052735,0.341797 -0.318151,0.29267 -0.468673,0.604724 -0.449218,0.933594 0.02329,0.325344 0.159418,0.622304 0.40625,0.890625 0.250356,0.272154 0.573339,0.395144 0.96875,0.371094 0.399244,-0.02758 0.861398,-0.131766 1.388672,-0.3125 1.039371,-0.439513 1.947632,-0.626054 2.722656,-0.560547 0.775024,0.06551 1.478575,0.442845 2.113281,1.132812 0.677019,0.735966 0.973233,1.522565 0.886719,2.359375 -0.09004,0.832978 -0.532783,1.616172 -1.330078,2.34961 -0.479144,0.440767 -1.031771,0.76888 -1.65625,0.982422 -0.620646,0.210014 -1.260545,0.241085 -1.917969,0.0957 -0.657425,-0.14538 -1.277942,-0.535572 -1.863281,-1.171875 l 1.695312,-1.560547 c 0.465451,0.505976 0.893467,0.77129 1.283203,0.794922 0.393569,0.02011 0.790805,-0.152811 1.189453,-0.519532 0.325818,-0.299722 0.473356,-0.60065 0.445313,-0.90039 -0.03157,-0.303574 -0.171138,-0.589101 -0.417969,-0.857422 -0.264461,-0.287487 -0.5522,-0.458195 -0.863281,-0.511719 -0.310775,-0.06089 -0.873168,0.06212 -1.689453,0.367188 -0.816286,0.305063 -1.617616,0.474502 -2.404297,0.511718 -0.834671,0.0389 -1.583179,-0.300852 -2.246094,-1.021484 -0.64881,-0.7053 -0.921435,-1.498554 -0.818359,-2.378906 0.09955,-0.884186 0.538276,-1.684584 1.316406,-2.400391 0.801129,-0.736963 1.660473,-1.082845 2.580078,-1.037109 z m 135.128902,8.310547 c 0.62417,-0.01719 1.2735,3.7e-4 1.94336,0.05664 l 0.0234,-0.0098 c 1.44385,0.121847 2.99192,0.405377 4.75586,0.876953 0.45927,0.122779 0.80296,0.479877 0.84766,0.898437 0.006,0.06511 -0.006,0.132993 -0.0137,0.195313 0.0132,0.0038 0.0239,-0.0047 0.0371,0 0.51007,0.154404 0.83753,0.588971 0.79883,1.060547 l -0.0664,0.716796 c -0.8525,10.232375 -1.74039,20.816019 -4.19727,31.039063 -0.0691,0.29114 -0.27556,0.540344 -0.57227,0.683594 -0.0508,0.0288 -0.1052,0.02917 -0.1621,0.04687 -2.49652,10.64722 -6.73121,18.874616 -12.9629,25.068356 -3.76458,4.16234 -8.43929,7.65925 -12.96289,11.04492 l -1.4082,1.04688 c 2.00677,5.19944 2.20255,10.48269 0.56055,15.32031 -0.38002,1.09569 -0.68368,2.20917 -1.00781,3.38672 -0.82506,2.99965 -1.68189,6.09213 -3.75977,8.7207 0.21135,0.17858 0.35375,0.4119 0.37305,0.68165 0.22659,3.4517 -0.48757,6.8033 -1.1836,10.04296 -0.44809,2.08535 -0.91741,4.24074 -1.10742,6.36328 l -0.23828,2.36915 c -0.56395,5.46173 -1.15315,11.10514 -0.90625,16.65429 0.0122,0.24556 -0.0793,0.48222 -0.25,0.67383 0.29365,0.19904 0.47509,0.49903 0.46289,0.83203 -0.13615,4.40323 0.5803,8.76437 1.6543,13.0625 l -4.49414,0.53711 c -0.90737,-3.83121 -1.55914,-7.71129 -1.7461,-11.65039 -0.006,-0.19254 0.0594,-0.37052 0.16407,-0.53516 -0.20423,-0.19253 -0.32822,-0.44529 -0.32422,-0.71875 0.17274,-11.05181 0.3955,-24.74757 5.34179,-37.08203 -0.45926,-0.19347 -0.72515,-0.61594 -0.66015,-1.06054 0.42168,-2.91874 1.31398,-5.76421 2.17968,-8.51368 1.10755,-3.51497 2.14477,-6.82951 2.31446,-10.33984 0.17374,-2.64342 -0.80846,-5.27119 -1.76563,-7.80859 -0.23166,-0.61388 -0.45745,-1.22578 -0.67187,-1.83594 -0.15646,-0.44461 0.0373,-0.9265 0.48437,-1.17578 4.34479,-2.42485 8.24587,-5.54031 12.01758,-8.5586 1.09535,-0.87617 2.18161,-1.75095 3.28711,-2.61132 1.94277,-2.59693 3.97581,-5.40109 5.80274,-8.388676 -0.30278,0.31252 -0.61603,0.62617 -0.94727,0.923828 -0.25301,0.2268 -0.59882,0.325774 -0.94531,0.296876 -0.16157,-0.01113 -0.3233,-0.05345 -0.47266,-0.126954 -0.46634,-0.23067 -0.6906,-0.709129 -0.56055,-1.162109 0.55987,-1.95235 1.53364,-3.777021 2.47657,-5.550781 1.36257,-2.56159 2.65232,-4.982593 2.70312,-7.626953 0.006,-0.35531 0.21304,-0.683865 0.56055,-0.865235 0.34952,-0.18139 0.78179,-0.198856 1.14453,-0.03516 0.15649,0.07069 0.3065,0.155916 0.46094,0.228516 -0.6188,-2.83226 0.81402,-5.567071 2.10547,-8.025391 0.38915,-0.74037 0.75181,-1.436431 1.05664,-2.119141 0.20219,-0.45577 0.74052,-0.704153 1.28515,-0.626953 1.12581,-3.866546 1.41706,-7.961097 1.69141,-11.935547 0.17578,-2.541119 0.35078,-5.17214 0.74805,-7.740234 -0.17576,-1.411008 0.66247,-2.441432 1.43164,-3.283203 -0.57916,0.178589 -1.16404,0.319189 -1.74219,0.433594 0.0386,0.348798 -0.1322,0.699111 -0.44922,0.912109 -0.90634,0.612027 -1.80389,1.227258 -2.70313,1.847656 -2.69669,1.861192 -5.48099,3.789864 -8.45507,5.449219 -3.74022,2.090935 -6.34438,5.25 -9.11524,8.869141 -4.34682,5.803092 -6.20248,11.286263 -5.51562,16.277343 0.28552,1.17663 0.65783,2.465767 1.01953,3.716797 1.03947,3.59219 2.1104,7.303372 1.75781,11.169922 -0.006,0.0986 -0.0692,0.197375 -0.0762,0.296875 -0.0376,0.717141 -0.12815,1.364171 -0.27344,1.949221 0.70718,-0.34043 1.41664,-0.66915 2.12891,-1.02539 0.11176,-0.0586 0.20636,-0.13699 0.32422,-0.18359 l 1.41992,-0.535163 c 0.47041,-0.17673 1.01805,-0.06699 1.35742,0.273438 0.33938,0.340435 0.38825,0.834635 0.12305,1.218755 l -0.26172,0.38867 c -2.84302,2.37649 -5.70825,6.04819 -10.44727,8.48047 -0.10365,0.0587 -0.22978,0.0354 -0.34765,0.0234 -0.3536,-0.0289 -0.68358,-0.19613 -0.88477,-0.4668 -0.27228,-0.35995 -0.0956,-0.75797 0.0273,-1.17188 0.26113,-0.8799 0.57351,-1.63778 0.94335,-2.30468 -1.12581,0.14615 -2.35253,0.14621 -3.6582,0.0234 -0.0447,-0.003 -0.092,-0.005 -0.13672,-0.0117 -0.33631,-0.0288 -0.64545,-0.17911 -0.84765,-0.42188 -0.22964,-0.27531 -0.28913,-0.6273 -0.16211,-0.94726 0.67874,-1.72446 1.6505,-3.31089 2.60156,-4.843758 0.72243,-1.16266 1.4039,-2.271761 1.9668,-3.431641 -0.0386,-1.94954 -0.6401,-3.848435 -1.28125,-5.859375 -0.87281,-2.73832 -1.77496,-5.570449 -1.1836,-8.605469 0.19306,-5.26825 2.29643,-10.541438 6.40039,-15.949219 -6.20623,5.383601 -10.55667,11.9524 -12.36328,18.84375 -0.74477,3.20337 0.11882,6.349334 1.03125,9.689454 0.45623,1.67238 0.92958,3.396635 1.1836,5.140625 0.0509,0.13114 0.069,0.275841 0.0508,0.421883 -0.0569,0.56924 -0.62024,0.98764 -1.26953,0.93554 h -0.0195 c -0.32819,-0.0288 -0.6336,-0.17296 -0.83984,-0.41015 -7.01101,-8.040062 -5.12929,-19.014233 -0.14844,-26.322273 3.95968,-7.281988 11.0345,-12.506399 17.88086,-17.564453 1.11058,-0.820376 2.22326,-1.638795 3.3125,-2.462891 0.94294,-0.692017 1.84458,-1.402383 2.75196,-2.107422 1.73853,-1.351481 3.54327,-2.750744 5.49414,-3.978516 0.0324,-0.02325 0.0719,-0.04092 0.10937,-0.05859 1.43421,-0.708063 3.09826,-1.089035 4.9707,-1.140625 z M 52.324219,58.667969 c 1.413154,-0.0066 2.903375,0.05691 4.464843,0.189453 l 0.623047,0.05664 c 0.414563,0.0465 0.796465,0.08444 1.183594,0.113282 2.618451,0.220427 5.333499,0.183777 7.957031,0.148437 2.679409,-0.03535 5.45501,-0.07061 8.19336,0.158203 h 0.01367 c 1.55055,0.131148 2.962273,0.329777 4.308593,0.617188 9.14171,2.434153 15.58102,5.990787 19.75,10.873047 4.293983,5.004106 9.424333,11.743904 11.068363,19.583984 3.93732,-1.42123 8.52199,-1.583136 12.75195,-1.722656 0.72042,-0.0232 1.43493,-0.03851 2.12891,-0.06641 1.01406,-0.0522 2.0479,-0.04248 3.07617,0.04492 6.59745,0.55529 12.35144,3.881129 15.06641,8.699219 0.16555,0.19718 0.25206,0.454497 0.22656,0.716797 -0.0569,0.5711 -0.65723,0.992681 -1.28516,0.925781 -0.14023,-0.01765 -0.31164,-0.04833 -0.45898,-0.115234 -1.60237,-0.74969 -3.0924,-1.662046 -4.5332,-2.541016 -1.92245,-1.1729 -3.7436,-2.281643 -5.79102,-3.033203 -1.44995,-0.34507 -2.9604,-0.58946 -4.50586,-0.71875 -7.31481,-0.61481 -14.82344,1.30044 -21.19531,3.25 -0.16461,0.04622 -0.33242,0.06162 -0.49805,0.04492 -0.33328,-0.02883 -0.6414,-0.172595 -0.84766,-0.421875 -0.30275,-0.37391 -0.29467,-0.881297 0.0254,-1.242187 1.08822,-1.2287 2.35139,-2.163442 3.73632,-2.894532 -2.37257,-2.32811 -3.79516,-5.108878 -5.16992,-7.798828 -1.12379,-2.19976 -2.17827,-4.281378 -3.720704,-6.142578 -0.0256,-0.0298 -0.05092,-0.0629 -0.07422,-0.0918 C 93.398569,69.078437 83.121322,63.511662 72.294922,63.041016 l -0.5625,-0.01367 c -5.57119,-0.167427 -11.323763,-0.34354 -16.984375,-0.671877 l -0.287109,-0.02344 c -5.338513,-0.448324 -10.589139,1.01475 -14.046876,3.91211 -0.975444,0.756197 -1.636998,1.957222 -1.705078,3.076171 -0.0315,0.544128 0.0652,1.316358 0.673828,1.960938 4.880258,3.085244 10.90954,3.931666 16.75,4.753906 1.805586,0.25393 3.678551,0.516257 5.490235,0.841797 0.54665,0.09766 0.942366,0.515586 0.947265,1.003906 0.0061,0.48832 -0.379206,0.922151 -0.923828,1.025391 -3.197623,0.61482 -6.480225,0.782016 -9.77539,0.503906 -5.498039,-0.46227 -10.66721,-2.14479 -14.929688,-4.86914 -1.65114,-1.17568 -2.533482,-2.768076 -2.601562,-4.636719 -0.09145,-2.531818 1.35512,-5.360627 3.673828,-7.205078 3.233183,-2.468568 7.484643,-3.78886 12.925781,-4 l -0.002,-0.002 c 0.453428,-0.01767 0.915669,-0.0272 1.386719,-0.0293 z M 204.25,61.410156 l 1.14844,1.998047 -6.76563,3.890625 c -0.64564,0.371287 -1.00869,0.721737 -1.08984,1.050781 -0.0786,0.33356 -0.001,0.704977 0.23242,1.111329 0.23627,0.410864 0.51528,0.6611 0.83789,0.751953 0.32521,0.09537 0.81138,-0.04278 1.45703,-0.414063 l 6.76563,-3.890625 1.14844,1.998047 -6.76563,3.890625 c -1.1423,0.656893 -2.14185,0.826538 -2.99805,0.507813 -0.85619,-0.318734 -1.555,-0.950894 -2.09765,-1.894532 -0.55044,-0.957184 -0.74761,-1.883486 -0.58985,-2.779297 0.15776,-0.89581 0.80888,-1.671233 1.95118,-2.328125 z M 59.306641,65.236328 c 0.783862,-0.0046 1.588145,0.03409 2.410156,0.115234 v -0.002 c 1.096355,0.108827 2.231431,0.288299 3.386719,0.546875 1.749697,0.398097 3.570216,0.754344 5.330078,1.095704 5.740891,1.112436 11.679317,2.259711 16.810547,5.232421 5.90954,3.29265 10.056165,9.324077 11.072265,16.128907 0.57713,3.27037 -0.600415,6.283155 -1.734375,9.197265 -0.48264,1.2408 -0.927562,2.419914 -1.257812,3.613276 1.6359,-1.663052 3.654315,-3.005059 6.189451,-3.771479 1.86755,-0.64739 4.07499,-0.916024 6.16406,-0.740234 3.85097,0.32367 6.76467,2.072534 7.99415,4.796873 2.20085,4.53627 0.82996,9.11191 -0.49805,13.54492 -0.65031,2.16814 -1.26506,4.22178 -1.48047,6.25781 -0.0325,0.28184 -0.19428,0.53311 -0.44727,0.70703 -0.25302,0.17669 -0.5763,0.25158 -0.89843,0.20508 l -2.01563,-0.25195 c -0.47146,-0.0614 -0.833,-0.37257 -0.95898,-0.75391 -0.34141,0.53669 -0.73651,1.06302 -1.20899,1.5625 -1.83911,1.77191 -4.75469,2.69395 -7.64648,2.45118 -2.643854,-0.22232 -4.845174,-1.39559 -6.039064,-3.23633 -0.01931,-0.0344 -1.572497,-0.91287 -1.591797,-0.94727 -0.16967,-0.34228 -0.310038,-0.6831 -0.423828,-1.02539 -0.05793,0.32834 -0.116929,0.65957 -0.173829,0.98047 -0.131039,0.75071 0.01217,0.039 -0.125,0.76172 -0.07418,0.3981 -0.415356,0.72888 -0.859374,0.83398 -0.13819,0.0298 -0.27293,0.0346 -0.41211,0.0234 -0.27435,-0.0233 -0.521553,-0.14163 -0.720703,-0.31836 -0.0254,0.17857 -0.09252,0.35118 -0.224609,0.5 -1.71413,1.94211 -3.660159,3.72662 -5.542969,5.44922 -1.71005,1.56448 -3.486319,3.18197 -5.042969,4.89062 -1.09026,1.17476 -2.270019,2.31866 -3.412109,3.41993 -3.31448,3.19966 -6.447577,6.21835 -7.820313,10.20117 -1.955961,5.11107 -3.556387,12.63776 -0.148437,19.64258 2.268918,4.45625 7.163883,7.11404 12.189453,9.35937 0.20118,-0.4381 0.447787,-0.85181 0.685547,-1.26758 -0.24284,-0.11068 -0.437125,-0.28198 -0.546875,-0.51172 -1.40728,-2.93643 -3.498177,-6.54216 -7.185547,-8.28711 -0.62591,-0.35994 -1.195038,-0.63093 -1.804688,-0.92578 -1.540383,-0.74503 -3.143563,-1.51615 -4.248047,-2.91601 -0.104766,-0.13207 -0.171855,-0.28813 -0.197265,-0.44531 -0.619811,-3.67309 0.534948,-6.87619 3.076172,-8.58204 3.781876,-2.64994 9.022903,-3.73227 15.564453,-3.18164 1.29752,0.10976 2.672193,0.28914 4.095703,0.52539 6.09244,0.7162 11.226375,4.0337 13.013675,8.44532 1.41135,2.91502 -0.74646,6.03887 -3.574222,7.22851 -3.78391,1.68634 -7.807455,3.04492 -11.703125,4.35547 -1.02218,0.34415 -2.047353,0.68737 -3.064453,1.03711 -0.1199,0.19066 -0.252127,0.38055 -0.373047,0.57031 0.39324,0.16091 0.658094,0.49004 0.683594,0.87696 0.0508,0.83433 0.137172,2.32073 0.201172,3.44336 0.49279,0.0726 0.985639,0.14054 1.480469,0.21484 2.418289,0.36275 4.923246,0.7417 7.373046,0.94727 3.26975,0.27441 5.956048,0.20606 8.466796,-0.20508 3.56748,-0.51993 6.70491,-1.969 10.02344,-3.5 1.57088,-0.72456 3.19511,-1.4741 4.85742,-2.10938 5.77237,-2.00629 10.54589,-5.64965 15.16602,-9.17578 1.31788,-1.00455 2.63751,-2.00822 3.97265,-2.97461 0.7641,-0.79249 1.56404,-1.5909 2.37891,-2.39453 4.13346,-4.06931 8.41236,-8.27311 8.38086,-13.72461 0.0843,-2.22952 -0.16834,-4.48773 -0.41016,-6.66797 -0.18186,-1.64444 -0.37508,-3.34159 -0.42578,-5.03906 -0.0122,-0.34695 0.17587,-0.67 0.5,-0.86719 0.32313,-0.19712 0.75225,-0.24341 1.12109,-0.11133 3.38966,1.1915 3.98958,4.35044 4.4336,6.65625 0.43287,3.17267 0.75346,6.49242 -0.28906,9.66602 -1.25079,5.96772 -6.13167,10.24866 -10.85547,14.38867 -0.7143,0.62691 -1.42635,1.24882 -2.11524,1.8711 -4.3265,3.77445 -9.29368,6.89307 -14.0957,9.91601 -1.64097,1.03338 -3.27996,2.06641 -4.89453,3.12305 -0.0254,8.21584 -0.47499,16.80333 -1.36914,26.06836 l -4.79492,0.57031 c 0.15749,-1.19987 0.24803,-2.41452 0.27343,-3.63672 -0.003,-3.68147 0.31823,-7.40551 0.62305,-11.00977 0.27232,-3.22384 0.54696,-6.54001 0.59766,-9.82617 -5.31717,2.39415 -11.02355,4.46924 -17.322269,4.06836 l -1.941407,-0.13672 c -1.59222,-0.10325 -3.207782,-0.20599 -4.820312,-0.34179 -5.83232,-0.49018 -12.532238,-1.45313 -18.080078,-4.85742 -4.447396,-2.66111 -9.981501,-7.18692 -10.984375,-13.63086 -0.750887,-5.33524 -0.157899,-11.14945 1.767578,-17.29297 1.453006,-4.44976 4.908329,-7.81718 8.244141,-11.08008 0.915489,-0.89571 1.823819,-1.79346 2.6875,-2.70313 1.04658,-0.99431 2.037144,-2.05498 2.990234,-3.07812 2.99441,-3.21266 6.085892,-6.5341 10.857422,-8.0586 0.21744,-0.0641 0.445756,-0.0635 0.660156,-0.0234 -1.56376,-2.55044 -0.765601,-5.52586 -0.113281,-7.98047 0.15546,-0.58413 0.306881,-1.15649 0.425781,-1.70899 0.0061,-0.0353 0.02391,-0.0789 0.03711,-0.11328 1.05368,-2.9699 2.461424,-6.26215 4.683594,-8.9707 -0.18289,0.0288 -0.363908,0.0349 -0.548828,-0.0117 l -0.796875,-0.2168 c -0.85555,-0.22603 -1.734842,-0.44483 -2.601562,-0.65039 l 0.398437,1.36719 c 0.10466,0.36367 -0.02602,0.74905 -0.335937,1.00391 -0.248931,0.20279 -0.577887,0.29478 -0.910157,0.27148 -0.08535,-0.005 -0.165747,-0.0215 -0.248047,-0.0449 -0.06707,-0.0177 -0.141837,-0.0409 -0.210937,-0.0586 0.15546,0.0837 0.296327,0.15525 0.460937,0.25195 0.41864,0.24649 -0.283146,1.23806 -0.410156,1.66406 -0.127,0.42507 -0.546898,0.73292 -1.048828,0.76172 -0.83218,0.0585 -1.678462,0.0463 -2.513672,-0.0234 -6.21742,-0.52275 -11.159714,-4.30055 -14.208984,-7.386713 -6.226571,-6.257 -9.182173,-12.090506 -9.042969,-17.816406 0.01321,-0.43157 0.321739,-0.806722 0.787109,-0.945312 0.466389,-0.13673 0.992676,-0.0038 1.306641,0.330078 1.664353,1.77562 2.461963,3.849355 3.238281,5.859375 0.707192,1.82584 1.380756,3.547687 2.638672,4.992187 2.15105,2.67969 4.422198,5.040482 6.798828,7.044922 1.38596,1.19522 3.807223,1.995189 5.976563,2.759759 -1.3707,-0.95989 -2.492364,-2.262126 -2.964844,-4.070306 -0.1077,-0.41111 0.08036,-0.834155 0.474609,-1.072265 0.39423,-0.23803 0.918963,-0.239506 1.320313,-0.0098 l 3.275391,1.880859 c 0.0193,-0.04645 0.05082,-0.09022 0.07422,-0.136718 l 0.921875,-1.697266 c 0.16258,-0.29857 0.471793,-0.500994 0.845703,-0.558594 0.3729,-0.05859 0.760892,0.04285 1.033204,0.275391 0.727509,0.62042 1.447645,1.244639 2.166015,1.880859 0.14225,-0.04655 0.282598,-0.08605 0.423828,-0.126953 0.09959,-1.56541 0.472746,-3.118366 0.822266,-4.628906 0.71938,-3.11037 1.39556,-6.052336 -0.162109,-8.822266 -4.254331,-8.29768 -15.242187,-11.443644 -21.417969,-12.583984 -1.844187,-0.377634 -3.675966,-0.705983 -5.503907,-1.03711 -3.745288,-0.678996 -7.614163,-1.380034 -11.357421,-2.439453 -0.465366,-0.13208 -0.796866,-0.508616 -0.822266,-0.935547 -0.0315,-0.426929 0.241518,-0.815369 0.685547,-0.990234 1.956219,-0.774333 4.128882,-1.17377 6.480469,-1.1875 z m 148.330079,5.796875 c 0.28733,0.01836 0.56087,0.06873 0.81836,0.150391 1.02994,0.326631 1.80093,1.05538 2.31445,2.183594 0.53295,1.170873 0.63048,2.164988 0.29297,2.982421 -0.33278,0.81528 -1.04212,1.517422 -2.12891,2.109375 l -0.92187,-2.02539 c 0.62354,-0.352487 1.00418,-0.696457 1.14453,-1.029297 0.14725,-0.33026 0.11574,-0.726853 -0.0957,-1.191406 -0.24598,-0.540407 -0.63229,-0.854607 -1.15821,-0.941407 -0.52592,-0.0868 -1.2688,0.08647 -2.22851,0.517578 l -1.82813,0.832032 c -0.98126,0.44664 -1.60828,0.912077 -1.88476,1.398437 -0.27174,0.4842 -0.26876,1.034138 0.0117,1.650391 0.1683,0.369747 0.34055,0.615721 0.51562,0.736328 l 0.40234,0.28125 1.89844,-0.865234 -0.66992,-1.472657 1.57813,-0.716797 1.625,3.56836 -4.27344,1.945312 c -0.33153,-0.112326 -0.78128,-0.366085 -1.34961,-0.759765 -0.56832,-0.393687 -1.07331,-1.075102 -1.51563,-2.046875 -0.52431,-1.151914 -0.58213,-2.239499 -0.17187,-3.261719 0.41715,-1.019633 1.37816,-1.870701 2.88086,-2.554687 l 1.75586,-0.800782 c 1.13058,-0.514606 2.1263,-0.744531 2.98828,-0.689453 z m -177.916017,7.896485 1.777344,0.691406 -2.296875,5.896484 -10.59961,-4.126953 0.835938,-2.148437 8.824219,3.435546 z M 208.9707,83.962891 c 0.15442,0.006 0.30534,0.04281 0.45118,0.109375 0.29166,0.133086 0.49595,0.375875 0.61328,0.726562 0.11897,0.355627 0.10206,0.673272 -0.0508,0.955078 -0.15287,0.281807 -0.39276,0.476878 -0.71876,0.585938 -0.32597,0.109066 -0.6341,0.09791 -0.92578,-0.03516 -0.29166,-0.133088 -0.49821,-0.376796 -0.61718,-0.732422 -0.11733,-0.350687 -0.0982,-0.667412 0.0547,-0.949219 0.15286,-0.281813 0.39081,-0.476878 0.7168,-0.585938 0.163,-0.05453 0.32215,-0.08024 0.47656,-0.07422 z M 20.044922,84.101562 c 0.477616,-0.03203 0.975846,0.02822 1.498047,0.181641 1.054396,0.309773 1.802528,0.872394 2.242187,1.685547 0.441128,0.808153 0.502068,1.759622 0.185547,2.855469 l -0.451172,1.537109 3.837891,1.126953 -0.648438,2.210938 -10.914062,-3.207031 1.09375,-3.72461 c 0.322985,-1.099367 0.919472,-1.862509 1.789062,-2.291016 0.433031,-0.217486 0.889572,-0.342965 1.367188,-0.375 z m 0.171875,2.304688 c -0.222796,-0.0085 -0.439663,0.01238 -0.650391,0.06445 -0.424984,0.09771 -0.70673,0.376204 -0.841797,0.835938 l -0.443359,1.515625 3.402344,0.998046 0.445312,-1.513671 c 0.135067,-0.459734 0.08339,-0.835933 -0.15625,-1.128907 -0.243164,-0.299433 -0.600582,-0.51825 -1.070312,-0.65625 -0.234866,-0.069 -0.462751,-0.106767 -0.685547,-0.115234 z m 193.871093,4.25 c 0.63921,0.04343 1.19408,0.198427 1.66406,0.464844 0.93997,0.532833 1.54374,1.405134 1.8125,2.615234 0.27892,1.255853 0.16745,2.248689 -0.33203,2.978516 -0.49439,0.728686 -1.33372,1.268973 -2.51953,1.623047 l -0.48242,-2.173829 c 0.68302,-0.215719 1.12776,-0.471018 1.33398,-0.767578 0.21245,-0.292606 0.26301,-0.687274 0.15235,-1.185546 -0.12874,-0.579628 -0.44096,-0.96633 -0.9375,-1.160157 -0.49654,-0.193826 -1.25893,-0.180058 -2.28711,0.04297 l -1.96094,0.435547 c -1.05248,0.233753 -1.76356,0.55995 -2.13477,0.978515 -0.36612,0.417435 -0.47688,0.956208 -0.33007,1.617188 0.0881,0.396587 0.20526,0.671932 0.35156,0.826172 l 0.33594,0.357422 2.03711,-0.451172 -0.35157,-1.580078 1.69336,-0.375 0.85157,3.828125 -4.58399,1.017578 c -0.30108,-0.178553 -0.68959,-0.518651 -1.16406,-1.021485 -0.47448,-0.50284 -0.8271,-1.276052 -1.0586,-2.318359 -0.27441,-1.23552 -0.10524,-2.309503 0.50782,-3.224609 0.61926,-0.911147 1.73393,-1.546324 3.3457,-1.904297 l 1.88477,-0.417969 c 0.80842,-0.179553 1.53267,-0.24851 2.17187,-0.205079 z m -198.957031,2.300781 11.199219,1.990235 -0.402344,2.269531 -3.03125,-0.539063 -4.601562,-1.03125 7.273437,3.59375 -0.27539,1.546876 -8.064453,0.86719 4.673828,0.61718 3.03125,0.53711 -0.402344,2.26953 -11.201172,-1.99023 0.525391,-2.95312 8.46875,-0.677739 -7.71875,-3.544922 z m 199.871091,7.041016 c 1.05829,0.0028 1.93075,0.231883 2.61719,0.685543 0.92107,0.60942 1.45787,1.52777 1.61133,2.75782 0.15346,1.23004 -0.0749,2.20828 -0.6875,2.93554 -0.60743,0.72662 -1.54695,1.21248 -2.81836,1.45508 l -0.28516,-2.2793 c 0.80303,-0.12642 1.3373,-0.32177 1.60352,-0.58593 0.27139,-0.2648 0.37102,-0.69471 0.29687,-1.28907 -0.0729,-0.58401 -0.33495,-0.98465 -0.78711,-1.20117 -0.45216,-0.21652 -1.20081,-0.26444 -2.24609,-0.14453 l -2.05469,0.25586 c -1.06466,0.13283 -1.80789,0.34415 -2.22851,0.63281 -0.42062,0.28867 -0.59037,0.75631 -0.50977,1.40235 0.0703,0.56334 0.25499,0.95146 0.55469,1.16601 0.2997,0.21455 0.85988,0.28503 1.67969,0.20899 l 0.2832,2.27929 c -1.28818,0.10823 -2.30611,-0.132 -3.05664,-0.7207 -0.75053,-0.58869 -1.20264,-1.4879 -1.35352,-2.69726 -0.15474,-1.24039 0.13177,-2.25631 0.85743,-3.04493 0.72566,-0.7886 1.85298,-1.28582 3.38086,-1.49218 l 2.02343,-0.25196 c 0.39408,-0.0492 0.76638,-0.07319 1.11914,-0.07226 z m -108.80468,0.673833 c -1.80977,0.001 -3.63487,0.52449 -4.91602,1.43359 -3.5248,2.1458 -5.549019,5.67306 -6.849609,9.53125 1.04555,-1.32638 2.375808,-2.54465 3.861328,-3.61524 0.25606,-0.18599 0.580455,-0.26889 0.921875,-0.21679 0.33022,0.0465 0.621642,0.19966 0.808596,0.44336 0.42473,0.55993 0.76853,1.17079 1.0957,1.75586 0.43997,0.78781 0.8534,1.54236 1.43359,2.09765 0.58425,-0.67155 1.16092,-1.36054 1.71875,-2.02929 0.62998,-0.75528 1.25604,-1.50757 1.9043,-2.2461 0.23167,-0.26416 0.60037,-0.41418 0.98242,-0.39648 0.3973,0.0112 0.73898,0.18497 0.94727,0.46679 1.30364,1.74678 2.26983,3.85949 2.63867,6.05274 0.93378,-3.35777 1.80086,-6.52653 1.0957,-9.75781 -0.63707,-2.83318 -3.61434,-3.38319 -4.86718,-3.48829 -0.25617,-0.0209 -0.51686,-0.0315 -0.77539,-0.0312 z m 28.49218,0.27148 c 0.25333,-0.004 0.49565,0.002 0.73633,0.0215 h 0.002 c 4.62819,0.39078 7.73874,4.67763 8.08008,8.59571 0.82408,6.65974 -1.24535,15.98469 -9.80078,20.25586 -0.48164,0.23904 -1.08117,0.15663 -1.45508,-0.20703 -0.37282,-0.36185 -0.41,-0.90539 -0.0879,-1.29883 3.4618,-4.23489 7.3808,-9.03417 7.3086,-14.58985 0,-0.0586 0.0122,-0.11327 0.0254,-0.17187 0.57613,-3.15038 -0.13305,-8.14399 -4.39453,-9.13086 -5.15561,0.28927 -8.4722,4.93559 -9.66407,6.93164 -1.28738,2.02584 -0.20341,4.29912 1.10938,6.41797 0.88195,-0.7562 1.71242,-1.57248 2.57812,-2.41797 0.91144,-0.89106 1.85119,-1.81319 2.86524,-2.66797 0.26013,-0.2166 0.62264,-0.31238 0.98437,-0.27148 0.36071,0.0465 0.67452,0.23546 0.85742,0.51172 3.56849,5.39288 0.69357,11.41722 -2.85156,14.94335 -0.0579,0.0605 -0.12306,0.11366 -0.19726,0.16016 -1.67653,1.03338 -3.61136,1.55544 -5.29297,1.41406 -1.04149,-0.0874 -1.9655,-0.42043 -2.75196,-0.97851 -2.53309,-1.3803 -3.38733,-3.7862 -3.89843,-5.99805 -0.65538,0.50506 -1.31493,1.00917 -1.98047,1.50586 -0.40134,0.30041 -0.97995,0.31904 -1.41992,0.0586 -0.43991,-0.26043 -0.63829,-0.74559 -0.47266,-1.18554 1.25183,-3.33732 3.12965,-6.44219 4.94336,-9.45118 0.70821,-1.17473 1.42119,-2.34727 2.0918,-3.5332 1.70398,-2.90109 5.50093,-7.88878 11.8789,-8.86914 0.28705,-0.026 0.55262,-0.0399 0.80664,-0.0449 z m -121.503903,4.47656 11.326172,1.05078 -0.212891,2.28711 -11.326172,-1.05078 z m 201.771483,3.81836 c 1.65546,-0.0509 2.89477,0.27373 3.71875,0.97266 0.82397,0.69894 1.25484,1.66725 1.29297,2.90625 0.0396,1.28585 -0.25389,2.24149 -0.88086,2.86523 -0.62173,0.62359 -1.54823,0.99853 -2.7793,1.125 l -0.0684,-2.22656 c 0.71129,-0.0844 1.19516,-0.25301 1.45313,-0.50586 0.26333,-0.24781 0.38679,-0.62655 0.37109,-1.13672 -0.0183,-0.59347 -0.2515,-1.03133 -0.70312,-1.31445 -0.45164,-0.28312 -1.20411,-0.41193 -2.25586,-0.38477 l -2.00781,0.0625 c -1.07762,0.0332 -1.83648,0.22063 -2.2793,0.5625 -0.43761,0.34175 -0.64583,0.85058 -0.625,1.52735 0.0125,0.40606 0.0764,0.69811 0.19141,0.87695 l 0.26171,0.41406 2.08594,-0.0625 -0.0508,-1.61719 1.73438,-0.0527 0.12109,3.91992 -4.69336,0.14453 c -0.26246,-0.23161 -0.58086,-0.64007 -0.95313,-1.22265 -0.37226,-0.58258 -0.57457,-1.40741 -0.60742,-2.47461 -0.0389,-1.26503 0.32846,-2.28965 1.10157,-3.07422 0.77847,-0.77952 1.99231,-1.19335 3.64257,-1.24414 z m -202.169921,0.22266 1.34375,0.0391 7.984375,4.84766 0.138672,-4.68555 1.90625,0.0566 -0.21875,7.37109 -1.380859,-0.041 -7.9375,-4.87695 -0.138672,4.68554 -1.914063,-0.0547 z m 22.509766,52.05664 4.138672,6.70898 -1.628906,1.00586 -1.480469,-2.40039 -8.054688,4.96485 -1.205078,-1.95508 8.052735,-4.96485 -1.451172,-2.35547 z m 160.277345,2.4668 1.60351,1.04687 -2.30273,3.52539 2.25,1.4707 1.95312,-2.99023 1.54883,1.01172 -1.95117,2.99023 2.52539,1.64844 2.31055,-3.53906 1.5957,1.04101 -3.57031,5.47071 -9.52539,-6.21875 z m -155.726564,4.85546 1.386719,1.83985 -3.675781,2.76953 2.035156,2.70117 3.675781,-2.76758 1.376953,1.82813 -9.085937,6.84375 -1.376953,-1.83008 3.888672,-2.92773 -2.03711,-2.70118 -3.886718,2.92774 -1.386719,-1.8418 z m 151.712894,1.30078 1.50781,1.17774 -1.73438,2.22461 7.45704,5.82226 -1.41407,1.81055 -7.45703,-5.82226 -1.70312,2.17968 -1.50782,-1.17773 z m -146.054691,6.04102 4.371094,4.83203 -1.419922,1.28516 -2.824219,-3.12305 -1.99414,1.80274 2.394531,2.64843 -1.373047,1.24219 -2.394531,-2.64844 -2.236328,2.02344 2.835937,3.13477 -1.414062,1.27734 -4.38086,-4.84375 z m 140.550781,0.81445 8.48047,7.58008 -1.53125,1.71289 -8.48047,-7.58008 z m -2.51758,2.87891 5.44727,5.58789 c 0.91979,0.94357 1.33067,1.87079 1.23437,2.7793 -0.0963,0.9085 -0.53302,1.74212 -1.3125,2.50195 -0.79066,0.77074 -1.63993,1.19031 -2.54687,1.25977 -0.90694,0.0695 -1.82044,-0.36698 -2.74024,-1.31055 l -5.44726,-5.58789 1.65039,-1.60938 5.44726,5.58789 c 0.51989,0.53332 0.94823,0.79992 1.28711,0.79688 0.34262,-0.007 0.68193,-0.17474 1.01758,-0.50195 0.3394,-0.33084 0.51353,-0.66298 0.52149,-0.99805 0.0117,-0.3387 -0.24186,-0.77527 -0.76172,-1.30859 l -5.44727,-5.58789 z m -130.142576,5.48438 c 0.889764,-0.004 1.735782,0.33936 2.53711,1.02929 0.825012,0.71013 1.268711,1.52467 1.330078,2.44336 0.06531,0.92209 -0.236899,1.77118 -0.90625,2.54883 l -1.740234,-1.49805 c 0.309193,-0.35921 0.484775,-0.72299 0.527343,-1.09179 0.04651,-0.36542 -0.107625,-0.70202 -0.46289,-1.00782 -0.327636,-0.28201 -0.65413,-0.39345 -0.978516,-0.33593 -0.320439,0.0609 -0.60005,0.22956 -0.837891,0.50585 -0.241238,0.28028 -0.327619,0.61592 -0.257812,1.00586 0.07375,0.39334 0.231911,0.84104 0.472656,1.34375 0.557241,0.9813 0.848107,1.86129 0.873047,2.63868 0.02494,0.77738 -0.267315,1.51992 -0.878906,2.23047 -0.652364,0.75789 -1.400992,1.14305 -2.242188,1.15429 -0.837797,0.007 -1.667216,-0.34207 -2.488281,-1.04883 -0.493428,-0.42471 -0.881398,-0.93579 -1.166016,-1.53125 -0.28067,-0.59206 -0.386408,-1.22271 -0.318359,-1.89257 0.06805,-0.66986 0.383243,-1.33106 0.947266,-1.98633 l 1.746093,1.50195 c -0.4485,0.52106 -0.66046,0.97735 -0.638672,1.36719 0.02573,0.39324 0.243762,0.76577 0.654297,1.11914 0.335532,0.28881 0.650858,0.4025 0.945313,0.33984 0.297853,-0.0666 0.564893,-0.23734 0.802734,-0.51367 0.25483,-0.29606 0.391167,-0.60277 0.408203,-0.91797 0.02438,-0.31574 -0.162753,-0.86138 -0.560547,-1.63672 -0.397794,-0.77533 -0.66074,-1.55109 -0.789062,-2.32812 -0.135567,-0.82451 0.115134,-1.60749 0.753906,-2.34961 0.625182,-0.72633 1.381212,-1.08999 2.267578,-1.08984 z m 123.212896,1.57617 c 0.22438,-0.0237 0.45092,-0.0217 0.67968,0.004 0.91909,0.099 1.70278,0.54533 2.34961,1.3418 l -1.7832,1.44922 c -0.29879,-0.36791 -0.62698,-0.60569 -0.98242,-0.71289 -0.3514,-0.11048 -0.7084,-0.0182 -1.07227,0.27734 -0.33557,0.27253 -0.50308,0.57291 -0.5039,0.90235 0.003,0.32616 0.11989,0.63104 0.3496,0.91406 0.23313,0.28705 0.54722,0.4313 0.94336,0.43164 0.40018,-0.003 0.86885,-0.0784 1.40625,-0.22656 1.06446,-0.37468 1.98048,-0.50569 2.75,-0.39258 0.76952,0.1131 1.45001,0.53398 2.04102,1.26172 0.63042,0.77625 0.87811,1.5783 0.74023,2.4082 -0.14116,0.82585 -0.63367,1.58072 -1.47461,2.26367 -0.50538,0.41043 -1.07645,0.70227 -1.71289,0.87696 -0.6324,0.17139 -1.27074,0.16411 -1.91796,-0.0215 -0.64723,-0.18558 -1.24402,-0.61206 -1.78907,-1.2832 l 1.78907,-1.45313 c 0.43341,0.53368 0.84488,0.82352 1.23242,0.8711 0.39158,0.0443 0.79633,-0.10381 1.21679,-0.44532 0.34366,-0.27908 0.51149,-0.57019 0.50196,-0.87109 -0.0128,-0.30494 -0.13538,-0.59785 -0.36524,-0.88086 -0.24625,-0.30323 -0.52288,-0.49188 -0.83008,-0.56445 -0.30644,-0.0799 -0.87546,0.007 -1.70898,0.26172 -0.83352,0.25422 -1.64416,0.37653 -2.43164,0.36523 -0.83548,-0.0126 -1.5624,-0.4001 -2.17969,-1.16016 -0.60414,-0.7439 -0.82701,-1.55148 -0.66992,-2.42382 0.1538,-0.87638 0.6402,-1.64792 1.46094,-2.31446 0.63374,-0.51467 1.28779,-0.80776 1.96094,-0.8789 z m -116.445318,3.77929 c 0.792277,-0.0138 1.565713,0.24875 2.322266,0.78907 1.008737,0.72042 1.573417,1.5528 1.69336,2.49609 0.122968,0.93905 -0.156962,1.95904 -0.839844,3.05859 l -1.869141,-1.33593 c 0.451021,-0.67632 0.6702,-1.2014 0.65625,-1.57618 -0.01092,-0.37901 -0.260629,-0.74369 -0.748047,-1.09179 -0.478938,-0.34206 -0.950431,-0.41833 -1.416015,-0.23242 -0.465584,0.1859 -1.008975,0.70263 -1.628907,1.55273 l -1.203125,1.68555 c -0.623563,0.87311 -0.972299,1.56145 -1.044921,2.0664 -0.07262,0.50496 0.155748,0.9478 0.685546,1.32617 0.461985,0.32995 0.873528,0.45596 1.234375,0.38086 0.360848,-0.0751 0.791557,-0.43921 1.291016,-1.09375 l 1.869141,1.33399 c -0.793082,1.02085 -1.660088,1.60848 -2.601563,1.76172 -0.941475,0.15324 -1.908607,-0.12371 -2.900391,-0.83203 -1.017214,-0.72648 -1.569736,-1.62339 -1.658203,-2.69141 -0.08847,-1.06802 0.308128,-2.2344 1.191407,-3.49805 l 1.185546,-1.66015 c 0.923238,-1.29272 1.917442,-2.07055 2.982422,-2.33399 0.268062,-0.0662 0.534737,-0.10087 0.798828,-0.10547 z m 107.792968,2.35743 5.94141,9.69921 -1.95899,1.19922 -6.76172,-4.60742 3.89649,6.36328 -1.96484,1.20313 -5.94141,-9.70117 1.96484,-1.20313 6.76563,4.61523 -3.90039,-6.36914 z m -101.33203,1.41211 1.957031,1.20312 -5.953125,9.69336 -1.957031,-1.20313 z m 3.318359,2.07421 3.441407,1.79883 c 1.015486,0.53078 1.649317,1.26482 1.90039,2.20117 0.2581,0.93416 0.135093,1.88295 -0.36914,2.84766 -0.50906,0.97395 -1.204718,1.5981 -2.087891,1.87109 -0.87856,0.2754 -1.824608,0.1507 -2.837891,-0.37304 l -1.419922,-0.74219 -1.853515,3.54492 -2.041016,-1.06641 z m 88.201171,2.37891 c 0.53664,-0.028 1.06685,0.0636 1.58985,0.27539 1.0437,0.41887 1.9247,1.36656 2.64257,2.8418 l 0.82617,1.69922 c 0.70193,1.44245 0.89342,2.69201 0.57227,3.74609 -0.32115,1.05407 -1.03225,1.84726 -2.13281,2.38281 -1.0959,0.53328 -2.16223,0.60413 -3.19922,0.21094 -1.037,-0.39318 -1.90746,-1.31146 -2.60938,-2.75391 l -0.82617,-1.69922 c -0.71787,-1.47522 -0.91991,-2.75225 -0.60547,-3.83203 0.31216,-1.08446 1.01545,-1.89446 2.11133,-2.42773 0.55029,-0.26778 1.09422,-0.41536 1.63086,-0.44336 z m -87.044921,0.38477 -1.642578,3.14453 1.398438,0.73047 c 0.424653,0.22196 0.804665,0.24443 1.138672,0.0664 0.341033,-0.18023 0.624775,-0.48798 0.851562,-0.92187 0.226787,-0.43389 0.330707,-0.86711 0.310547,-1.30078 -0.01313,-0.43588 -0.23355,-0.76437 -0.658203,-0.98633 z m 87.031251,1.60546 c -0.25266,-0.007 -0.51079,0.0529 -0.77539,0.18165 -0.52453,0.25524 -0.823,0.65771 -0.89649,1.20898 -0.0711,0.54431 0.12214,1.29311 0.58008,2.24609 l 0.86133,1.77149 c 0.45123,0.92728 0.91571,1.52896 1.39258,1.80664 0.47926,0.2707 0.9825,0.27704 1.51172,0.0195 0.52452,-0.25525 0.82475,-0.65061 0.90039,-1.18555 0.0756,-0.53494 -0.10554,-1.25713 -0.54297,-2.16797 l -0.85742,-1.76367 c -0.47403,-0.97412 -0.95218,-1.60358 -1.4336,-1.89062 -0.24071,-0.14352 -0.48757,-0.21918 -0.74023,-0.22657 z m -6.55274,0.85743 4.23438,10.55664 -2.13086,0.85547 -4.23633,-10.55665 z m -68.613276,1.0625 c 0.53538,-0.0291 1.089139,0.0601 1.662109,0.26757 1.15084,0.41671 1.938681,1.1478 2.363281,2.19336 0.426374,1.04067 0.361301,2.33239 -0.197265,3.875 l -0.644531,1.77735 c -0.546155,1.50833 -1.309016,2.51581 -2.289063,3.01953 -0.98004,0.50372 -2.044472,0.54562 -3.195313,0.12891 -1.145939,-0.41495 -1.940719,-1.13049 -2.380859,-2.14844 -0.44014,-1.01796 -0.385997,-2.28073 0.160156,-3.78906 l 0.642579,-1.77735 c 0.558565,-1.54261 1.336271,-2.57708 2.330078,-3.10351 0.49779,-0.26567 1.013448,-0.41427 1.548828,-0.44336 z m 65.453126,0.26562 0.5918,1.82031 -2.6836,0.8711 2.92383,8.99804 -2.18359,0.71094 -2.92383,-8.99805 -2.63086,0.85352 -0.5918,-1.82031 z m -65.228517,1.71094 c -0.248808,0.0332 -0.485611,0.13126 -0.708984,0.29687 -0.44008,0.3281 -0.842165,0.98811 -1.207031,1.98047 l -0.669922,1.85156 c -0.3511,0.96966 -0.461019,1.72224 -0.328125,2.25782 0.13956,0.53245 0.485682,0.89923 1.039062,1.09961 0.548487,0.1986 1.041982,0.13862 1.478516,-0.17969 0.436533,-0.31831 0.828827,-0.95211 1.177734,-1.90039 l 0.667969,-1.84375 c 0.368827,-1.01861 0.488715,-1.80034 0.359375,-2.3457 -0.129347,-0.54537 -0.472011,-0.91877 -1.025391,-1.11914 -0.274243,-0.0993 -0.534395,-0.13082 -0.783203,-0.0977 z m 6.253906,0.125 3.757813,0.97266 c 1.109287,0.28707 1.893069,0.85963 2.349609,1.71484 0.462894,0.85147 0.55789,1.8036 0.285157,2.85742 -0.275347,1.06391 -0.812895,1.82907 -1.611329,2.29492 -0.793393,0.46716 -1.742103,0.56004 -2.847656,0.2793 l -1.550781,-0.40039 -1.001953,3.87109 -2.230469,-0.57617 z m 48.875001,1.20898 6.0332,10.28516 -2.38281,0.54883 -1.11523,-2.13281 -3.05274,0.70117 -0.0723,2.40429 -2.37696,0.54688 0.91992,-11.88281 z m -41.078126,0.78907 7.777346,1.2832 -0.31055,1.88867 -2.7832,-0.45898 -1.54102,9.33398 -2.265622,-0.375 1.541015,-9.33398 -2.728515,-0.45118 z m -6.044922,0.43359 -0.888671,3.43359 1.527343,0.39453 c 0.463887,0.12006 0.838021,0.0557 1.123047,-0.19336 0.291374,-0.25275 0.498434,-0.61587 0.621094,-1.08984 0.122667,-0.47397 0.125812,-0.92004 0.0078,-1.33789 -0.111475,-0.42159 -0.399402,-0.69245 -0.863282,-0.8125 z m 41.285158,0.0801 0.18555,1.33008 -3.44922,8.68164 4.64258,-0.64454 0.26171,1.88868 -7.30468,1.01367 -0.18946,-1.36914 3.48633,-8.64063 -4.64258,0.64453 -0.26367,-1.89648 z m -26.32617,0.82422 2.28515,0.22265 -1.09961,11.32031 -2.28515,-0.2207 z m 17.76367,0.23242 0.80469,11.3457 -2.29102,0.16406 -0.80469,-11.34765 z m -14.03906,0.23633 3,0.0391 2.04101,8.24609 2.24805,-8.18945 3,0.0391 -0.14844,11.375 -2.30469,-0.0312 0.0391,-3.07812 0.27343,-4.70703 -2.36718,7.75781 -1.57032,-0.0195 -2.16406,-7.81836 0.15039,4.71289 -0.041,3.07812 -2.30469,-0.0293 z m 28.10742,0.63086 -0.12695,4.19726 2.07812,-0.47656 z"
       transform="translate(29.200065,28.279967)" /></g></svg>
